<?xml version="1.0" encoding="UTF-8"?><svg preserveAspectRatio="none" xmlns="http://www.w3.org/2000/svg" viewBox="-20 -20 500 300"
width="40" height="40"
><defs><style>.cls-1{fill:#fbc043;}.cls-2{fill:#ffd74e;}.cls-3{fill:#feec65;}.cls-4{fill:#58595b;opacity:.72;}</style></defs><g id="Layer_1"><path class="cls-2" d="M409.2,108.94c-12.89,2.57-27.27,1.96-39.43,7.4-1.84,.82-3.48,1.72-4.9,2.6,2.14,.12,5.99,1.55,5.99,1.55,5.25,2.52,8.87,7.9,8.87,14.12,0,1.35-.17,2.67-.5,3.91-1.74,6.77-7.87,11.77-15.16,11.77-4.78,0-9.26-2.39-12.21-6.1-3.11-3.91-4.82-10.02-4.43-15.03,.26-3.41,1.38-6.77,3.29-9.61,.4-.61,.82-1.17,1.28-1.73,4.83-6.06,12.28-9.96,19.25-12.91,14.91-6.32,31.17-10.07,45.23-18.29,2.09-1.22,4.13-2.67,5.62-4.55,.28-.37,.55-.74,.79-1.14,1.57-2.52,1.74-5.28,.79-7.74-.57-1.53-1.61-2.97-2.97-4.13-2.46-2.08-5.63-3.16-8.79-3.8-10.33-2.08-21.36,.12-30.46,5.45-15.01,8.82-22.32,25.16-29.82,40.13-1.38,2.75-2.65,5.59-3.98,8.39-1.66,3.57-3.36,7.1-5.34,10.44-15.13,25.56-39.98,40.09-68.85,45.25-.72,.13-1.47,.27-2.22,.39,1.86,1.02,3.79,2.19,5.74,3.49,1.92,1.18,3.74,2.58,5.51,3.97,3.21,2.52,6.01,5.09,8.46,7.59,1.14,1.17,2.2,2.31,3.19,3.44,.35,.06,.71,.12,1.06,.19,2.74,.57,5.72,1.3,8.19,2.75,5.91,3.43,3.65,9.23-.92,12.95-5.46,4.44-12.91,6.41-19.66,7.92-7.2,1.62-14.56,2.48-21.91,2.99-12.11,.84-24.46-.01-36.21-2.58-7.01-1.53-33.6-7.27-25.92-19.36,3.02-4.75,9.33-7.12,14.78-7.12,.32,0,.63,.01,.94,.02,2.3-2.91,4.76-5.73,7.4-8.3,2.22-2.17,4.61-4.19,7.21-5.9,1.07-.71,2.12-1.31,3.12-1.86-4.24-.68-8.42-1.61-12.57-2.81-16.31-4.69-31.46-12.68-45.74-21.7-11.57-7.31-22.67-15.37-33.81-23.33-10.95-7.84-21.83-15.77-32.99-23.29-14.63-9.85-29.09-19.68-45.36-26.65-16.03-6.88-32.91-11.62-49.96-15.19-3.68-.77-7.36-1.47-11.06-2.13-.51-.86-.9-1.93-.6-2.92,.82-2.69,6.19-3.3,8.63-3.58,.72-.09,1.42-.15,2.13-.21,4.92-.41,9.85-.32,14.65,.68,.5-.72,1.03-1.4,1.61-2.06,1.76-1.97,3.87-3.61,6.24-4.8,1.39,.13,2.88,.29,4.45,.51,7.28,.99,16.49,3.01,36.39,11.04,24.39,9.82,49.11,22.13,75.36,26.05,18.45,2.76,36.51-.75,52.75-9.07,.15-.84,.33-1.69,.71-2.46,.39-.8,.97-1.52,1.91-1.62,.52-.05,1.03-.02,1.56,.06,1.55-.94,3.63-2.2,6.04-3.72,4.36-2.75,8.67-5.58,13.05-8.28,3.63-2.24,7.33-4.73,11.34-6.24,3.53-1.35,6.55-1.9,8.77-2.23-3.47-1.98-6.23-5.21-7.56-9.15-4.43-13.21,1.66-25.35,9.31-35.82,1.4-1.91,3.08-4.13,5.08-6.58,7.61,7.47,14.65,16.32,16.99,25.83,2.21,8.96,.35,21.15-8.11,25.95,.72,.15,1.44,.33,2.14,.54,5.42,1.59,10.54,4.06,15.5,6.73,6.88,3.71,13.71,7.53,20.46,11.46,.28,.16,.55,.32,.82,.48,.61-.18,1.18-.32,1.63-.3,.77,.02,2.19,.07,2.91,1.06,.62,.86,.11,2.81,.05,3.08,2.06,1.06,3.87,2.08,5.44,3.03,11.05,6.66,20.73,15.48,26.06,27.46,1.2,2.74,2.08,5.33,2.7,7.73,1.13-7.89,2.02-15.82,2.7-23.78,.86-9.87,1.5-20.19,7.03-28.78,4.09-6.34,10.48-9.3,17.74-10.84,16.37-3.52,33.76-2.71,50.39-2.08,7.91,.32,16.27,1.24,23.19,5.42,6.71,4.08,11.36,10.94,12.71,18.68,4.26,24.34-25.22,33.6-43.69,37.3Z"/></g><g id="Layer_2"><path class="cls-1" d="M298.62,202.37c-1.05,1.62-2.59,2.45-5.64,4.04-4.87,2.57-9.01,3.66-9.86,3.88-16.92,4.36-34.56,4.34-51.76,1.69-8.36-1.29-17.57-3.58-23.82-9.66-.97-.95-1.94-2.09-2.03-3.46-.19-2.62,2.29-4.97,4.72-7.02,1.17-.22,2.29-.29,3.29-.3h.01c.32,0,.63,.01,.94,.02,2.3-2.91,4.76-5.73,7.4-8.3,1.19-1.17,2.42-2.28,3.7-3.3,8.12,4.13,17.62,6.32,27.32,6.32,1.74,0,3.47-.07,5.21-.22,8.42-.68,15.46-2.62,21.05-5.78,1.14,.82,2.25,1.64,3.32,2.47,3.21,2.52,6.01,5.09,8.46,7.59l-10.44-6.04h-.01c-.27,.18-.54,.38-.8,.56l5.91,14.86-12.58-11.44h-.01c-.65,.26-1.3,.49-1.98,.71l1.12,14.42-10.61-12.34c-.88,.11-1.76,.21-2.64,.28h0s-6.22,13.66-6.22,13.66l-5.4-13.59c-.94-.09-1.87-.18-2.8-.32h-.01s-8.86,12.85-8.86,12.85v-14.68c-.49-.15-.97-.29-1.46-.45l-12.26,11.96,4.86-14.88c-.32-.15-.62-.3-.94-.46l-12.74,9.31c.01,.28,.04,.56,.07,.85,1.02,7.35,10.93,8.74,16.82,9.92,17.43,3.49,34.28,1.92,51.6-1.4,3.02-.57,6.16-1.78,8.71-3.48,2.48-1.67,4.2-3.98,4.93-6.66,1.46,.29,2.92,.66,4.3,1.1,.51,2.36,.57,5.08-.86,7.29Z"/></g><g id="Layer_3"><path class="cls-1" d="M277.43,179.09c-5.22,2.76-11.72,4.48-19.47,5.1-10.81,.88-21.64-1.08-30.75-5.52,.61-.46,1.24-.89,1.87-1.31,1.06-.71,2.11-1.33,3.11-1.87,12.89,2.09,26.06,1.89,39.01-.21,1.87,1.03,3.8,2.19,5.76,3.5,.16,.1,.31,.21,.46,.31Z"/></g><g id="Layer_4"><path class="cls-3" d="M330.75,129.05c-2.03,2.77-4.45,5.78-7.3,8.89-34,37.06-86.02,34.24-127.83,13.35-18.24-9.11-35.15-20.57-52.43-31.32-18.48-11.5-37.03-22.89-55.77-33.95,13.69,4.6,27.17,9.97,39.91,16.8,26.01,13.91,51,30.1,78.84,40.22,31,11.27,67.54,17.36,98.55,2.89,8.13-3.8,15.31-8.84,18.08-10.8,2.93-2.07,5.58-4.13,7.94-6.07Z"/></g><g id="Layer_5"><path class="cls-1" d="M271.49,62.66l.64,13.89-10.78-12.44c-.13,.01-.27,.02-.4,.04-.96,.09-1.91,.16-2.85,.21l-5.29,13.61-6.04-13.56c-.67-.04-1.33-.09-1.97-.15l-10.73,12.41,1.3-14c-.71-.18-1.39-.38-2.07-.58l-14.85,11.42,4.9-12.12c.99-.63,2.03-1.28,3.18-1.97,.41-.26,.84-.51,1.28-.77,8.51,4.05,19.38,5.44,33.03,4.26,7.08-.62,13.01-1.86,18.16-3.86,.47,.26,.96,.51,1.44,.77,.49,.27,.97,.54,1.46,.8l6.28,11.71-14.4-10.3c-.74,.19-1.51,.38-2.29,.55v.09Z"/></g><g id="Layer_6"><path class="cls-4" d="M25.52,54.37c-.39,.54-.75,1.11-1.08,1.71-2.55,.87-5.19,1.46-7.87,1.82-3.64,.5-7.37,.54-11.08,.29-2.23-.16-3.93-.4-5.38-.7,.81-2.7,6.2-3.3,8.63-3.58,.71-.08,1.43-.15,2.13-.21,4.91-.41,9.85-.31,14.65,.68Z"/></g><g id="Layer_7"><path class="cls-1" d="M304.93,74.81c-2.32,1.06-4.68,2.03-7.07,2.92-5.88,2.19-11.94,3.88-18.1,5.1-9.85,1.94-19.92,2.65-29.94,2.34-15.82-.49-32.83-2.61-47.52-9.12,.14-.84,.33-1.69,.71-2.46,.39-.8,.97-1.52,1.91-1.62,.53-.05,1.04-.02,1.56,.07,.77,.13,1.52,.37,2.24,.62,2.35,.81,4.73,1.51,7.13,2.14,3.41,.91,6.85,1.68,10.32,2.28,1.01,.18,2.03,.34,3.05,.49,.17,.03,.35,.06,.53,.08,6.65,.95,13.36,1.44,20.08,1.65,10.02,.31,20.09-.39,29.94-2.34,6.15-1.22,12.22-2.9,18.1-5.09,.07-.02,.13-.05,.19-.08,.06-.02,.13-.05,.19-.08,.55-.21,1.33-.52,2.08-.74,.61-.18,1.19-.31,1.63-.29,.76,.02,2.19,.06,2.91,1.06,.62,.86,.11,2.81,.06,3.08Z"/></g><g id="Layer_8"><path class="cls-1" d="M257.16,53.39c-.18,.04-.38,.09-.57,.11,.69-1.06,1.34-2.15,1.94-3.25,5.12-9.55,3.27-20.92-2.47-29.74-.77-1.18-1.8-2.62-3.13-4.15-1.33,1.53-2.35,2.97-3.12,4.15-5.76,8.82-7.61,20.19-2.47,29.74,.49,.92,1.02,1.84,1.59,2.74-4.94-1.57-9.08-5.48-10.8-10.59-4.43-13.21,1.66-25.35,9.31-35.82,1.4-1.91,3.08-4.13,5.08-6.58,7.61,7.47,14.65,16.32,16.99,25.83,2.54,10.3-.29,24.88-12.35,27.57Z"/></g></svg>